<svg xmlns="http://www.w3.org/2000/svg" xmlns:xlink="http://www.w3.org/1999/xlink" width="1920" zoomAndPan="magnify" viewBox="0 0 1440 809.999993" height="1080" preserveAspectRatio="xMidYMid meet" version="1.0"><defs><clipPath id="id1"><path d="M 0 234 L 610 234 L 610 810 L 0 810 Z M 0 234 " clip-rule="nonzero"/></clipPath><clipPath id="id2"><path d="M -492.90625 197.074219 L 641.128906 279.140625 L 565.773438 1320.417969 L -568.257812 1238.351562 Z M -492.90625 197.074219 " clip-rule="nonzero"/></clipPath><clipPath id="id3"><path d="M -492.90625 197.074219 L 641.128906 279.140625 L 565.773438 1320.417969 L -568.257812 1238.351562 Z M -492.90625 197.074219 " clip-rule="nonzero"/></clipPath><clipPath id="id4"><path d="M 0 422 L 424 422 L 424 810 L 0 810 Z M 0 422 " clip-rule="nonzero"/></clipPath><clipPath id="id5"><path d="M -407.355469 408.289062 L 435.109375 438.335938 L 407.523438 1211.84375 L -434.941406 1181.800781 Z M -407.355469 408.289062 " clip-rule="nonzero"/></clipPath><clipPath id="id6"><path d="M -407.355469 408.289062 L 435.109375 438.335938 L 407.523438 1211.84375 L -434.941406 1181.800781 Z M -407.355469 408.289062 " clip-rule="nonzero"/></clipPath><clipPath id="id7"><path d="M 1036 0 L 1440 0 L 1440 283 L 1036 283 Z M 1036 0 " clip-rule="nonzero"/></clipPath><clipPath id="id8"><path d="M 1924.953125 203.625 L 1096.113281 357.484375 L 954.84375 -403.511719 L 1783.683594 -557.375 Z M 1924.953125 203.625 " clip-rule="nonzero"/></clipPath><clipPath id="id9"><path d="M 1924.953125 203.625 L 1096.113281 357.484375 L 954.84375 -403.511719 L 1783.683594 -557.375 Z M 1924.953125 203.625 " clip-rule="nonzero"/></clipPath><clipPath id="id10"><path d="M 1078 0 L 1440 0 L 1440 285 L 1078 285 Z M 1078 0 " clip-rule="nonzero"/></clipPath><clipPath id="id11"><path d="M 1935.289062 267.117188 L 1093.191406 306.140625 L 1057.363281 -467.03125 L 1899.460938 -506.050781 Z M 1935.289062 267.117188 " clip-rule="nonzero"/></clipPath><clipPath id="id12"><path d="M 1935.289062 267.117188 L 1093.191406 306.140625 L 1057.363281 -467.03125 L 1899.460938 -506.050781 Z M 1935.289062 267.117188 " clip-rule="nonzero"/></clipPath><clipPath id="id13"><path d="M 1089.542969 702.542969 L 1304.792969 702.542969 L 1304.792969 810 L 1089.542969 810 Z M 1089.542969 702.542969 " clip-rule="nonzero"/></clipPath><clipPath id="id14"><path d="M 1144.089844 757.089844 L 1249.839844 757.089844 L 1249.839844 810 L 1144.089844 810 Z M 1144.089844 757.089844 " clip-rule="nonzero"/></clipPath></defs><rect x="-144" width="1728" fill="#ffffff" y="-80.999999" height="971.999992" fill-opacity="1"/><rect x="-144" width="1728" fill="#ffffff" y="-80.999999" height="971.999992" fill-opacity="1"/><rect x="-144" width="1728" fill="#ffffff" y="-80.999999" height="971.999992" fill-opacity="1"/><rect x="-144" width="1728" fill="#ffffff" y="-80.999999" height="971.999992" fill-opacity="1"/><g clip-path="url(#id1)"><g clip-path="url(#id2)"><g clip-path="url(#id3)"><path fill="#10b981" d="M 536.621094 589.71875 C 470.363281 562.652344 398.304688 588.449219 330.371094 572.820312 C 300.433594 565.859375 269.71875 550.105469 253.960938 522.46875 C 237.441406 493.644531 241.878906 459.574219 246.695312 428.070312 C 250.988281 399.90625 255.964844 370.105469 248.117188 342.191406 C 242.089844 320.332031 228.203125 301.847656 210.328125 287.871094 C 166.351562 252.832031 104.203125 242.976562 49.902344 237.640625 C 42.914062 236.851562 35.902344 236.34375 28.890625 235.835938 C -177.945312 223.125 -364.726562 338.4375 -448.554688 526.882812 C -491.332031 623.296875 -533.605469 759.496094 -423.535156 827.789062 C -378.75 855.554688 -326 866.703125 -280.550781 893.109375 C -255.664062 907.59375 -234.1875 926.34375 -219.96875 951.898438 C -205.273438 978.617188 -198.710938 1008.691406 -193.53125 1038.382812 C -183.746094 1094.0625 -176.164062 1149.015625 -143.277344 1197.066406 C -113.191406 1240.964844 -66.507812 1273.660156 -12.585938 1276.433594 C 38.53125 1279.007812 88.671875 1256.136719 113.394531 1210.566406 C 128.042969 1183.4375 133.902344 1153.132812 143.601562 1124.234375 C 153.746094 1093.113281 169.859375 1065.242188 192.457031 1041.226562 C 279.5 948.578125 414.070312 931.535156 514.355469 858.449219 C 561.382812 824.078125 603.335938 774.117188 608.800781 714.1875 C 613.539062 660.402344 586.742188 609.976562 536.621094 589.71875 Z M 536.621094 589.71875 " fill-opacity="1" fill-rule="nonzero"/></g></g></g><g clip-path="url(#id4)"><g clip-path="url(#id5)"><g clip-path="url(#id6)"><path fill="#a5b4fc" d="M 366.101562 671.273438 C 316.273438 653.019531 263.582031 674.085938 212.828125 664.347656 C 190.453125 660.003906 167.269531 649.164062 154.84375 629.117188 C 141.820312 608.210938 144.1875 582.847656 146.902344 559.375 C 149.316406 538.394531 152.195312 516.179688 145.625 495.710938 C 140.566406 479.679688 129.777344 466.363281 116.152344 456.492188 C 82.617188 431.726562 36.304688 426.109375 -4.074219 423.628906 C -9.273438 423.234375 -14.484375 423.046875 -19.691406 422.863281 C -173.285156 419.054688 -308.550781 509.550781 -365.550781 651.4375 C -394.628906 724.03125 -422.257812 826.082031 -338.851562 873.695312 C -304.914062 893.050781 -265.527344 899.878906 -231.136719 918.210938 C -212.304688 928.265625 -195.882812 941.578125 -184.65625 960.125 C -173.039062 979.519531 -167.363281 1001.621094 -162.71875 1023.480469 C -153.960938 1064.464844 -146.851562 1104.976562 -121.183594 1139.679688 C -97.699219 1171.386719 -62.222656 1194.34375 -22.195312 1194.9375 C 15.75 1195.457031 52.28125 1177.152344 69.359375 1142.722656 C 79.476562 1122.222656 82.996094 1099.613281 89.402344 1077.941406 C 96.074219 1054.609375 107.253906 1033.523438 123.347656 1015.117188 C 185.328125 944.117188 284.570312 927.839844 356.894531 870.976562 C 390.804688 844.234375 420.53125 806.082031 422.957031 761.53125 C 425.007812 721.558594 403.785156 684.925781 366.101562 671.273438 Z M 366.101562 671.273438 " fill-opacity="1" fill-rule="nonzero"/></g></g></g><g clip-path="url(#id7)"><g clip-path="url(#id8)"><g clip-path="url(#id9)"><path fill="#d6877c" d="M 1112.816406 115.117188 C 1165.421875 122.101562 1212.273438 90.082031 1263.929688 88.546875 C 1286.714844 87.921875 1311.699219 93.460938 1328.1875 110.328125 C 1345.441406 127.902344 1348.648438 153.171875 1351.105469 176.675781 C 1353.308594 197.679688 1355.328125 219.988281 1366.191406 238.535156 C 1374.617188 253.085938 1388.042969 263.738281 1403.488281 270.410156 C 1441.605469 287.292969 1488.03125 282.703125 1527.984375 276.347656 C 1533.148438 275.601562 1538.269531 274.648438 1543.394531 273.699219 C 1694.140625 244.015625 1806.492188 126.273438 1831.273438 -24.613281 C 1843.875 -101.792969 1848.648438 -207.410156 1756.886719 -235.746094 C 1719.554688 -247.261719 1679.625 -245.359375 1642.070312 -255.773438 C 1621.503906 -261.496094 1602.582031 -270.917969 1587.589844 -286.578125 C 1572.035156 -302.984375 1561.6875 -323.324219 1552.398438 -343.648438 C 1534.9375 -381.75 1519.191406 -419.746094 1486.589844 -448.039062 C 1456.773438 -473.878906 1417.15625 -488.574219 1377.957031 -480.449219 C 1340.808594 -472.707031 1309.128906 -446.898438 1299.945312 -409.574219 C 1294.527344 -387.367188 1296.007812 -364.535156 1294.46875 -341.988281 C 1293.03125 -317.761719 1286.703125 -294.75 1274.996094 -273.285156 C 1229.9375 -190.503906 1136.609375 -153.039062 1078.382812 -81.808594 C 1051.097656 -48.332031 1030.375 -4.628906 1037.699219 39.382812 C 1044.386719 78.84375 1073.066406 109.988281 1112.816406 115.117188 Z M 1112.816406 115.117188 " fill-opacity="1" fill-rule="nonzero"/></g></g></g><g clip-path="url(#id10)"><g clip-path="url(#id11)"><g clip-path="url(#id12)"><path fill="#6366f1" d="M 1142.898438 68.332031 C 1194.050781 82.449219 1244.839844 57.140625 1296.226562 62.6875 C 1318.878906 65.1875 1342.871094 74.089844 1356.898438 93.058594 C 1371.585938 112.824219 1371.304688 138.296875 1370.523438 161.914062 C 1369.832031 183.019531 1368.78125 205.398438 1377.003906 225.257812 C 1383.359375 240.820312 1395.203125 253.210938 1409.589844 261.933594 C 1445.039062 283.871094 1491.65625 285.675781 1532.101562 284.84375 C 1537.320312 284.8125 1542.523438 284.570312 1547.730469 284.332031 C 1701.121094 275.554688 1828.523438 174.285156 1873.714844 28.207031 C 1896.757812 -46.519531 1915.9375 -150.492188 1828.914062 -191.117188 C 1793.507812 -207.628906 1753.691406 -211.210938 1717.917969 -226.664062 C 1698.324219 -235.144531 1680.867188 -247.066406 1668.160156 -264.632812 C 1654.996094 -283.011719 1647.527344 -304.574219 1641.109375 -325.980469 C 1629.027344 -366.109375 1618.625 -405.902344 1590.199219 -438.390625 C 1564.199219 -468.070312 1526.964844 -488.046875 1487.023438 -485.359375 C 1449.164062 -482.769531 1414.253906 -461.539062 1400.050781 -425.824219 C 1391.644531 -404.566406 1389.988281 -381.746094 1385.378906 -359.621094 C 1380.636719 -335.820312 1371.21875 -313.890625 1356.6875 -294.230469 C 1300.730469 -218.390625 1203.152344 -194.046875 1135.726562 -131.449219 C 1104.117188 -102.023438 1077.613281 -61.566406 1078.84375 -16.964844 C 1080.074219 23.042969 1104.222656 57.8125 1142.898438 68.332031 Z M 1142.898438 68.332031 " fill-opacity="1" fill-rule="nonzero"/></g></g></g><g clip-path="url(#id13)"><path fill="#d6877c" d="M 1197.167969 917.792969 C 1137.84375 917.792969 1089.542969 869.496094 1089.542969 810.167969 C 1089.542969 750.84375 1137.84375 702.542969 1197.167969 702.542969 C 1256.496094 702.542969 1304.792969 750.84375 1304.792969 810.167969 C 1304.792969 869.496094 1256.496094 917.792969 1197.167969 917.792969 Z M 1197.167969 704.136719 C 1138.691406 704.136719 1091.136719 751.691406 1091.136719 810.167969 C 1091.136719 868.648438 1138.691406 916.203125 1197.167969 916.203125 C 1255.648438 916.203125 1303.203125 868.648438 1303.203125 810.167969 C 1303.203125 751.691406 1255.648438 704.136719 1197.167969 704.136719 Z M 1197.167969 704.136719 " fill-opacity="1" fill-rule="nonzero"/></g><g clip-path="url(#id14)"><path fill="#d6877c" d="M 1249.839844 809.964844 C 1249.839844 811.695312 1249.753906 813.421875 1249.585938 815.148438 C 1249.414062 816.871094 1249.160156 818.582031 1248.824219 820.28125 C 1248.484375 821.976562 1248.066406 823.65625 1247.5625 825.3125 C 1247.058594 826.96875 1246.476562 828.597656 1245.8125 830.199219 C 1245.152344 831.796875 1244.410156 833.363281 1243.59375 834.890625 C 1242.777344 836.417969 1241.890625 837.898438 1240.929688 839.339844 C 1239.964844 840.78125 1238.933594 842.167969 1237.835938 843.507812 C 1236.738281 844.847656 1235.578125 846.128906 1234.351562 847.351562 C 1233.128906 848.578125 1231.847656 849.738281 1230.507812 850.835938 C 1229.167969 851.9375 1227.78125 852.964844 1226.339844 853.929688 C 1224.898438 854.890625 1223.417969 855.777344 1221.890625 856.59375 C 1220.363281 857.410156 1218.796875 858.152344 1217.199219 858.8125 C 1215.597656 859.476562 1213.96875 860.058594 1212.3125 860.5625 C 1210.65625 861.066406 1208.976562 861.484375 1207.28125 861.824219 C 1205.582031 862.160156 1203.871094 862.414062 1202.148438 862.585938 C 1200.421875 862.753906 1198.695312 862.839844 1196.964844 862.839844 C 1195.230469 862.839844 1193.503906 862.753906 1191.78125 862.585938 C 1190.058594 862.414062 1188.347656 862.160156 1186.648438 861.824219 C 1184.949219 861.484375 1183.273438 861.066406 1181.613281 860.5625 C 1179.957031 860.058594 1178.328125 859.476562 1176.730469 858.8125 C 1175.128906 858.152344 1173.566406 857.410156 1172.039062 856.59375 C 1170.511719 855.777344 1169.027344 854.890625 1167.589844 853.929688 C 1166.148438 852.964844 1164.757812 851.9375 1163.421875 850.835938 C 1162.082031 849.738281 1160.800781 848.578125 1159.574219 847.351562 C 1158.351562 846.128906 1157.191406 844.847656 1156.089844 843.507812 C 1154.992188 842.167969 1153.960938 840.78125 1153 839.339844 C 1152.039062 837.898438 1151.148438 836.417969 1150.332031 834.890625 C 1149.515625 833.363281 1148.777344 831.796875 1148.113281 830.199219 C 1147.449219 828.597656 1146.867188 826.96875 1146.367188 825.3125 C 1145.863281 823.65625 1145.441406 821.976562 1145.105469 820.28125 C 1144.765625 818.582031 1144.511719 816.871094 1144.34375 815.148438 C 1144.171875 813.421875 1144.089844 811.695312 1144.089844 809.964844 C 1144.089844 808.230469 1144.171875 806.503906 1144.34375 804.78125 C 1144.511719 803.058594 1144.765625 801.347656 1145.105469 799.648438 C 1145.441406 797.949219 1145.863281 796.273438 1146.367188 794.617188 C 1146.867188 792.957031 1147.449219 791.328125 1148.113281 789.730469 C 1148.777344 788.128906 1149.515625 786.566406 1150.332031 785.039062 C 1151.148438 783.511719 1152.039062 782.027344 1153 780.589844 C 1153.960938 779.148438 1154.992188 777.757812 1156.089844 776.421875 C 1157.191406 775.082031 1158.351562 773.800781 1159.574219 772.574219 C 1160.800781 771.351562 1162.082031 770.191406 1163.421875 769.089844 C 1164.757812 767.992188 1166.148438 766.960938 1167.589844 766 C 1169.027344 765.039062 1170.511719 764.148438 1172.039062 763.332031 C 1173.566406 762.515625 1175.128906 761.777344 1176.730469 761.113281 C 1178.328125 760.453125 1179.957031 759.867188 1181.613281 759.367188 C 1183.273438 758.863281 1184.949219 758.441406 1186.648438 758.105469 C 1188.347656 757.765625 1190.058594 757.511719 1191.78125 757.34375 C 1193.503906 757.175781 1195.230469 757.089844 1196.964844 757.089844 C 1198.695312 757.089844 1200.421875 757.175781 1202.148438 757.34375 C 1203.871094 757.511719 1205.582031 757.765625 1207.28125 758.105469 C 1208.976562 758.441406 1210.65625 758.863281 1212.3125 759.367188 C 1213.96875 759.867188 1215.597656 760.453125 1217.199219 761.113281 C 1218.796875 761.777344 1220.363281 762.515625 1221.890625 763.332031 C 1223.417969 764.148438 1224.898438 765.039062 1226.339844 766 C 1227.78125 766.960938 1229.167969 767.992188 1230.507812 769.089844 C 1231.847656 770.191406 1233.128906 771.351562 1234.351562 772.574219 C 1235.578125 773.800781 1236.738281 775.082031 1237.835938 776.421875 C 1238.933594 777.757812 1239.964844 779.148438 1240.929688 780.589844 C 1241.890625 782.027344 1242.777344 783.511719 1243.59375 785.039062 C 1244.410156 786.566406 1245.152344 788.128906 1245.8125 789.730469 C 1246.476562 791.328125 1247.058594 792.957031 1247.5625 794.617188 C 1248.066406 796.273438 1248.484375 797.949219 1248.824219 799.648438 C 1249.160156 801.347656 1249.414062 803.058594 1249.585938 804.78125 C 1249.753906 806.503906 1249.839844 808.230469 1249.839844 809.964844 Z M 1249.839844 809.964844 " fill-opacity="1" fill-rule="nonzero"/></g></svg>